<?xml version="1.0" encoding="utf-8"?>
<!-- Generator: Adobe Illustrator 18.1.1, SVG Export Plug-In . SVG Version: 6.00 Build 0)  -->
<svg version="1.1" xmlns="http://www.w3.org/2000/svg" xmlns:xlink="http://www.w3.org/1999/xlink" x="0px" y="0px"
	 viewBox="-260 346 105 105" enable-background="new -260 346 105 105" xml:space="preserve">
<g id="Layer_9">
	<path fill="#EEA100" d="M-217.2,440.3c2.4-4.4,1.2-9.8-2.5-12.8l5.3-9.1c10.2,4.8,22.6,0.8,28.1-9.2c2.3-4.2,3-8.8,2.4-13.2
		l2.7-0.6c0.9,2.1,2.4,4,4.6,5.2c5,2.7,11.3,0.9,14-4.1c2.7-5,0.9-11.3-4.1-14c-5-2.7-11.3-0.9-14,4.1c-0.9,1.7-1.3,3.6-1.2,5.4
		l-2.7,0.6c-1.6-5.2-5.1-9.8-10.3-12.6c-8.7-4.7-19.2-2.8-25.7,3.9l-5.5-5.6c0.7-0.7,1.4-1.5,1.9-2.5c2.7-5,0.9-11.3-4.1-14
		c-5-2.7-11.3-0.9-14,4.1c-2.7,5-0.9,11.3,4.1,14c2.9,1.6,6.3,1.6,9.1,0.3l6.3,6.4c-0.4,0.6-0.9,1.3-1.2,2
		c-5.3,9.8-2.3,21.9,6.8,28.1l-5.2,9.1c-4.7-1.7-10.1,0.2-12.6,4.8c-2.7,5-0.9,11.3,4.1,14C-226.2,447.1-219.9,445.3-217.2,440.3z
		 M-240.5,366.8c2.1-3.9,7-5.3,10.9-3.2c0.4,0.2,0.6,0.7,0.3,1.1c-0.2,0.4-0.7,0.6-1.1,0.3c-3.1-1.7-6.9-0.5-8.6,2.5
		c-0.2,0.4-0.7,0.6-1.1,0.3C-240.5,367.7-240.7,367.2-240.5,366.8z M-165,394.1c0.4,0.2,0.6,0.7,0.3,1.1c-2.1,3.9-7,5.3-10.9,3.2
		c-0.4-0.2-0.6-0.7-0.3-1.1c0.2-0.4,0.7-0.6,1.1-0.3c3.1,1.7,6.9,0.5,8.6-2.5C-165.9,394-165.4,393.9-165,394.1z M-199,387.1
		c-0.9-0.5-1.2-1.5-0.7-2.4c0.5-0.9,1.5-1.2,2.4-0.7c8.1,4.4,11.1,14.6,6.7,22.7c-0.5,0.9-1.5,1.2-2.4,0.7c-0.9-0.5-1.2-1.5-0.7-2.4
		C-190.2,398.6-192.6,390.6-199,387.1z M-230.4,441.2c0.2-0.4,0.7-0.6,1.1-0.3c3.1,1.7,6.9,0.5,8.6-2.5c0.2-0.4,0.7-0.6,1.1-0.3
		s0.6,0.7,0.3,1.1c-2.1,3.9-7,5.3-10.9,3.2C-230.5,442.2-230.6,441.6-230.4,441.2z"/>
</g>
<g id="Layer_3">
	<path fill="#FFFFFF" d="M-191.5,394.3c0,0,1.8-1.7,2.1-0.7s2.2,7.1,0,11.8s-8.9,10-12.2,9.8c-3.3-0.2-2.3,0.5-1.9-2.6
		c0.5-3.1,8.7-4.5,10.1-7.8C-191.9,401.6-193.6,395-191.5,394.3C-189.4,393.7-191.5,394.3-191.5,394.3L-191.5,394.3"/>
</g>
<g id="Layer_9_copy">
	<path fill="#71ABE1" d="M-244.6,417c4.9-1.1,8.3-5.5,8.2-10.3l10.4-2c3.1,10.9,14.1,17.8,25.4,15.3c4.7-1,8.7-3.5,11.6-6.8l2.2,1.7
		c-1.1,2.1-1.4,4.5-0.9,6.9c1.2,5.6,6.7,9.1,12.3,7.9c5.6-1.2,9.1-6.7,7.9-12.3c-1.2-5.6-6.7-9.1-12.3-7.9c-1.9,0.4-3.6,1.3-4.9,2.6
		l-2.2-1.7c2.9-4.6,4.1-10.4,2.9-16.1c-2.1-9.7-10.4-16.5-19.8-17l0.7-7.9c1,0.1,2.1,0,3.1-0.2c5.6-1.2,9.1-6.7,7.9-12.3
		c-1.2-5.6-6.7-9.1-12.3-7.9c-5.6,1.2-9.1,6.7-7.9,12.3c0.7,3.3,2.9,5.8,5.7,7.2l-0.8,9c-0.8,0.1-1.6,0.2-2.3,0.4
		c-10.9,2.4-18.2,12.6-16.9,23.5l-10.4,2c-1.8-4.7-6.8-7.6-11.9-6.5c-5.6,1.2-9.1,6.7-7.9,12.3C-255.7,414.6-250.2,418.2-244.6,417z
		 M-203.9,351.1c4.3-0.9,8.6,1.8,9.6,6.2c0.1,0.5-0.2,0.9-0.6,1s-0.9-0.2-1-0.6c-0.7-3.4-4.1-5.6-7.6-4.9c-0.5,0.1-0.9-0.2-1-0.6
		C-204.7,351.7-204.4,351.2-203.9,351.1z M-175.3,426.5c0.1,0.5-0.2,0.9-0.6,1c-4.3,0.9-8.6-1.8-9.6-6.2c-0.1-0.5,0.2-0.9,0.6-1
		s0.9,0.2,1,0.6c0.7,3.4,4.1,5.6,7.6,4.9C-175.8,425.7-175.4,426-175.3,426.5z M-192.2,396c-0.2-1,0.4-1.9,1.4-2.1
		c1-0.2,1.9,0.4,2.1,1.4c2,9.1-3.8,18-12.9,20c-1,0.2-1.9-0.4-2.1-1.4s0.4-1.9,1.4-2.1C-195.2,410.3-190.7,403.2-192.2,396z
		 M-254,407.5c0.5-0.1,0.9,0.2,1,0.6c0.7,3.4,4.1,5.6,7.6,4.9c0.5-0.1,0.9,0.2,1,0.6s-0.2,0.9-0.6,1c-4.3,0.9-8.6-1.8-9.6-6.2
		C-254.7,408.1-254.4,407.6-254,407.5z"/>
</g>
</svg>
