<?xml version="1.0" encoding="utf-8"?>
<!-- Generator: Adobe Illustrator 18.1.1, SVG Export Plug-In . SVG Version: 6.00 Build 0)  -->
<svg version="1.1" id="Layer_9" xmlns="http://www.w3.org/2000/svg" xmlns:xlink="http://www.w3.org/1999/xlink" x="0px" y="0px"
	 viewBox="-255 347 100 100" enable-background="new -255 347 100 100" xml:space="preserve">
<path fill="#D3D3D3" d="M-172.7,381.6c-5,0-9.2,3.6-10.1,8.3l-10.5-0.2c-0.7-11.3-10-20.2-21.5-20.2c-4.8,0-9.2,1.5-12.7,4.2
	l-1.8-2.1c1.5-1.8,2.3-4,2.3-6.5c0-5.7-4.6-10.3-10.3-10.3c-5.7,0-10.3,4.6-10.3,10.3c0,5.7,4.6,10.3,10.3,10.3
	c1.9,0,3.8-0.5,5.3-1.5l1.8,2.1c-3.8,3.9-6.2,9.2-6.2,15.1c0,9.9,6.6,18.2,15.7,20.7l-2.3,7.6c-1-0.3-2-0.5-3.1-0.5
	c-5.7,0-10.3,4.6-10.3,10.3c0,5.7,4.6,10.3,10.3,10.3c5.7,0,10.3-4.6,10.3-10.3c0-3.3-1.6-6.3-4-8.2l2.6-8.6
	c0.8,0.1,1.6,0.1,2.4,0.1c11.2,0,20.3-8.5,21.4-19.3l10.5,0.2c0.7,5,5,8.8,10.2,8.8c5.7,0,10.3-4.6,10.3-10.3
	C-162.4,386.2-167,381.6-172.7,381.6z M-226.1,437.1c-4.4,0-8-3.6-8-8c0-0.5,0.4-0.8,0.8-0.8s0.8,0.4,0.8,0.8c0,3.5,2.8,6.3,6.3,6.3
	c0.5,0,0.8,0.4,0.8,0.8C-225.2,436.7-225.6,437.1-226.1,437.1z M-238.2,357.8c0-0.5,0.4-0.8,0.8-0.8c4.4,0,8,3.6,8,8
	c0,0.5-0.4,0.8-0.8,0.8s-0.8-0.4-0.8-0.8c0-3.5-2.8-6.3-6.3-6.3C-237.8,358.6-238.2,358.2-238.2,357.8z M-228.1,390.9
	c0,1-0.8,1.8-1.8,1.8c-1,0-1.8-0.8-1.8-1.8c0-9.2,7.5-16.7,16.7-16.7c1,0,1.8,0.8,1.8,1.8s-0.8,1.8-1.8,1.8
	C-222.1,377.7-228.1,383.6-228.1,390.9z M-165.5,392.7c-0.5,0-0.8-0.4-0.8-0.8c0-3.5-2.8-6.3-6.3-6.3c-0.5,0-0.8-0.4-0.8-0.8
	c0-0.5,0.4-0.8,0.8-0.8c4.4,0,8,3.6,8,8C-164.7,392.3-165,392.7-165.5,392.7z"/>
</svg>
