<?xml version="1.0" encoding="utf-8"?>
<!-- Generator: Adobe Illustrator 18.1.1, SVG Export Plug-In . SVG Version: 6.00 Build 0)  -->
<svg version="1.1" id="Capa_1" xmlns="http://www.w3.org/2000/svg" xmlns:xlink="http://www.w3.org/1999/xlink" x="0px" y="0px"
	 viewBox="0 0 612 792" enable-background="new 0 0 612 792" xml:space="preserve">
<g>
	<g>
		<path fill="#D3D3D3" d="M388.9,395.8l205.4,205.4c23.4,23.4,23.4,59.4,0,82.9c-10.8,10.8-27,18-41.4,18c-14.4,0-30.6-7.2-41.4-18
			L306,478.6L100.6,684c-10.8,10.8-27,18-41.4,18s-30.6-7.2-41.4-18c-23.4-23.4-23.4-59.4,0-82.9l205.4-205.4L17.8,190.4
			c-23.4-23.4-23.4-59.4,0-82.9s59.4-23.4,82.9,0L306,312.9l205.4-205.4c23.4-23.4,59.4-23.4,82.9,0s23.4,59.4,0,82.9L388.9,395.8z"
			/>
	</g>
</g>
</svg>
