<?xml version="1.0" encoding="utf-8"?>
<!-- Generator: Adobe Illustrator 18.1.1, SVG Export Plug-In . SVG Version: 6.00 Build 0)  -->
<svg version="1.1" id="Icons" xmlns="http://www.w3.org/2000/svg" xmlns:xlink="http://www.w3.org/1999/xlink" x="0px" y="0px"
	 viewBox="-255 347 100 100" enable-background="new -255 347 100 100" xml:space="preserve">
<path id="LinkedIn__x28_alt_x29_" fill="#6D6D6D" d="M-167.1,352.6h-76.7c-3.7,0-6.6,2.9-6.6,6.4v77.1c0,3.6,3,6.5,6.6,6.5h76.7
	c3.7,0,6.6-2.9,6.6-6.5v-77.1C-160.5,355.5-163.4,352.6-167.1,352.6z M-223.2,427.9h-13.6v-40.6h13.6V427.9z M-230,381.8L-230,381.8
	c-4.7,0-7.6-3.1-7.6-7c0-4,3-7,7.7-7c4.7,0,7.5,3,7.6,7C-222.3,378.6-225.3,381.8-230,381.8z M-174.2,427.9h-13.6v-21.7
	c0-5.5-2-9.2-6.9-9.2c-3.8,0-6,2.5-7,4.9c-0.4,0.9-0.5,2.1-0.5,3.3v22.7h-13.6c0,0,0.2-36.8,0-40.6h13.6v5.8c1.8-2.8,5-6.7,12.2-6.7
	c8.9,0,15.7,5.8,15.7,18.3C-174.2,404.6-174.2,427.9-174.2,427.9z M-202.2,393.2c0,0,0.1-0.1,0.1-0.1L-202.2,393.2L-202.2,393.2z"/>
</svg>
