<?xml version="1.0" encoding="utf-8"?>
<!-- Generator: Adobe Illustrator 18.1.1, SVG Export Plug-In . SVG Version: 6.00 Build 0)  -->
<svg version="1.1" id="Capa_1" xmlns="http://www.w3.org/2000/svg" xmlns:xlink="http://www.w3.org/1999/xlink" x="0px" y="0px"
	 viewBox="0 0 612 792" enable-background="new 0 0 612 792" xml:space="preserve">
<g>
	<g>
		<path fill="#D3D3D3" d="M44.1,563.7C20.8,563.7,0,583.3,0,606.5c0,23.3,20.8,44.1,44.1,44.1s42.8-20.8,42.8-44.1
			C86.9,583.3,67.3,563.7,44.1,563.7z"/>
		<path fill="#D3D3D3" d="M44.1,353.2C20.8,353.2,0,372.7,0,396c0,23.3,20.8,42.8,44.1,42.8s42.8-19.6,42.8-42.8
			C86.9,372.7,67.3,353.2,44.1,353.2z"/>
		<path fill="#D3D3D3" d="M200.7,224.6h370.9c22,0,40.4-17.1,40.4-39.2s-18.4-40.4-40.4-40.4H200.7c-22,0-40.4,18.4-40.4,40.4
			S178.7,224.6,200.7,224.6z"/>
		<path fill="#D3D3D3" d="M44.1,141.4C20.8,141.4,0,162.2,0,185.5s20.8,42.8,44.1,42.8s42.8-19.6,42.8-42.8S67.3,141.4,44.1,141.4z"
			/>
		<path fill="#D3D3D3" d="M571.6,355.6H200.7c-22,0-40.4,18.4-40.4,40.4c0,22,18.4,40.4,40.4,40.4h370.9c22,0,40.4-18.4,40.4-40.4
			C612,374,593.6,355.6,571.6,355.6z"/>
		<path fill="#D3D3D3" d="M571.6,566.1H200.7c-22,0-40.4,18.4-40.4,40.4c0,22,18.4,40.4,40.4,40.4h370.9c22,0,40.4-18.4,40.4-40.4
			C612,584.5,593.6,566.1,571.6,566.1z"/>
	</g>
</g>
</svg>
