<?xml version="1.0" encoding="utf-8"?>
<!-- Generator: Adobe Illustrator 18.1.1, SVG Export Plug-In . SVG Version: 6.00 Build 0)  -->
<svg version="1.1" id="Capa_1" xmlns="http://www.w3.org/2000/svg" xmlns:xlink="http://www.w3.org/1999/xlink" x="0px" y="0px"
	 viewBox="0 0 612 792" enable-background="new 0 0 612 792" xml:space="preserve">
<g>
	<g>
		<g>
			<path fill="#D3D3D3" d="M390.2,90c-120.2,0-218,97.8-218,218c0,50.3,15.4,96.4,43.3,132.7L12.9,643.3c-14,14-14,34.9,0,48.9
				c7,7,15.4,9.8,23.8,9.8s18.2-2.8,25.2-9.8l204-204c34.9,25.2,78.2,39.1,124.4,39.1c120.2,0,219.4-99.2,219.4-219.4
				S510.3,90,390.2,90z M390.2,465.9c-86.6,0-157.9-71.3-157.9-157.9s71.3-157.9,157.9-157.9S548.1,221.3,548.1,308
				S476.8,465.9,390.2,465.9z"/>
			<path fill="#D3D3D3" d="M434.9,199c-15.4-7-32.1,0-39.1,15.4s0,33.5,15.4,40.5c1.4,1.4,37.7,18.2,33.5,48.9
				c-2.8,18.2,11.2,34.9,30.7,34.9c15.4,0,27.9-11.2,29.3-26.5C513.1,250.7,464.2,211.6,434.9,199z"/>
			<path fill="#D3D3D3" d="M427.9,352.7c-16.8,0-30.7,14-30.7,30.7c0,16.8,14,29.3,30.7,29.3s30.7-12.6,30.7-29.3
				C458.7,366.7,444.7,352.7,427.9,352.7z"/>
		</g>
	</g>
</g>
</svg>
