<?xml version="1.0" encoding="utf-8"?>
<!-- Generator: Adobe Illustrator 18.1.1, SVG Export Plug-In . SVG Version: 6.00 Build 0)  -->
<svg version="1.1" id="Capa_1" xmlns="http://www.w3.org/2000/svg" xmlns:xlink="http://www.w3.org/1999/xlink" x="0px" y="0px"
	 viewBox="-28 119.4 554.6 554.6" enable-background="new -28 119.4 554.6 554.6" xml:space="preserve">
<g>
	<g>
		<path fill="#D3D3D3" d="M126.1,205.4c0-36.3,30.6-66.9,66.9-66.9s66.9,30.6,66.9,66.9V259c11.5-15.3,19.1-34.4,19.1-53.6
			c0-47.8-38.3-86.1-86.1-86.1S107,157.6,107,205.4c0,21,7.6,40.2,19.1,53.6V205.4z"/>
		<path fill="#D3D3D3" d="M422.6,348.9c-11.5,0-21,3.8-28.7,9.6l0,0c0-26.8-21-47.8-47.8-47.8c-11.5,0-22.9,3.8-32.5,11.5
			c-7.6-19.1-24.9-30.6-44-30.6c-11.5,0-21,3.8-28.7,9.6v-95.6c0-26.8-21-47.8-47.8-47.8s-47.8,21-47.8,47.8v170.2
			c-38.2-34.4-80.3-61.2-107.1-34.4c-38.2,38.2,42.1,112.8,103.3,225.7c44,78.4,105.2,107.1,166.4,107.1
			c89.9,0,162.6-72.7,162.6-162.6V396.7C470.4,369.9,449.4,348.9,422.6,348.9z M451.3,438.8v72.7c0,74.6-65,143.4-143.4,143.4
			c-72.7,0-114.8-40.2-149.2-95.6C86,433,32.4,375.7,51.6,354.6c21-21,72.7,24.9,112.8,66.9V205.4c0-15.3,13.4-28.7,28.7-28.7
			c15.3,0,28.7,13.4,28.7,28.7v200.8h19.1v-66.9c0-15.3,13.4-28.7,28.7-28.7c15.3,0,28.7,13.4,28.7,28.7v47.8h19.1v-28.7
			c0-15.3,13.4-28.7,28.7-28.7c15.3,0,28.7,13.4,28.7,28.7v47.8h19.1v-9.6c0-15.3,13.4-28.7,28.7-28.7c15.3,0,28.7,13.4,28.7,28.7
			L451.3,438.8L451.3,438.8z"/>
	</g>
</g>
</svg>
