<?xml version="1.0" encoding="utf-8"?>
<!-- Generator: Adobe Illustrator 18.1.1, SVG Export Plug-In . SVG Version: 6.00 Build 0)  -->
<svg version="1.1" id="Capa_1" xmlns="http://www.w3.org/2000/svg" xmlns:xlink="http://www.w3.org/1999/xlink" x="0px" y="0px"
	 viewBox="-9 100.1 592.9 592.9" enable-background="new -9 100.1 592.9 592.9" xml:space="preserve">
<g>
	<g>
		<path fill="#D3D3D3" d="M164.3,329.6v-23c-22.9-19.1-38.2-47.8-38.2-80.3c0-57.4,47.8-105.2,105.2-105.2
			c57.4,0,105.2,47.8,105.2,105.2c0,24.9-9.6,49.7-24.9,66.9c7.6,0,13.4,1.9,21,3.8c15.3-21,23-45.9,23-72.7
			c0-68.9-55.5-124.3-124.3-124.3s-124.3,55.5-124.3,124.3C106.9,268.4,129.8,306.7,164.3,329.6z"/>
		<path fill="#D3D3D3" d="M317.3,224.4c0-47.8-38.2-86.1-86.1-86.1s-86.1,38.2-86.1,86.1c0,21,7.6,40.2,19.1,53.6v-53.6
			c0-36.3,30.6-66.9,66.9-66.9s66.9,30.6,66.9,66.9V278C309.6,264.6,317.3,245.5,317.3,224.4z"/>
		<path fill="#D3D3D3" d="M460.7,367.9c-11.5,0-21,3.8-28.7,9.6l0,0c0-26.8-21-47.8-47.8-47.8c-11.5,0-23,3.8-32.5,11.5
			c-7.6-19.1-24.9-30.6-44-30.6c-11.5,0-21,3.8-28.7,9.6v-95.6c0-26.8-21-47.8-47.8-47.8s-47.8,21-47.8,47.8v170.2
			c-38.2-34.4-80.3-61.2-107.1-34.4C38,398.5,118.4,473.1,179.6,585.9C223.6,664.3,284.8,693,346,693c89.9,0,162.6-72.7,162.6-162.6
			V415.7C508.5,388.9,487.5,367.9,460.7,367.9z M489.4,457.8v72.7c0,74.6-65,143.4-143.4,143.4c-72.7,0-114.8-40.2-149.2-95.6
			C122.2,452,68.6,394.7,89.7,373.6c21-21,72.7,24.9,112.8,66.9V224.4c0-15.3,13.4-28.7,28.7-28.7s28.7,13.4,28.7,28.7v200.8H279
			v-66.9c0-15.3,13.4-28.7,28.7-28.7c15.3,0,28.7,13.4,28.7,28.7v47.8h19.1v-28.7c0-15.3,13.4-28.7,28.7-28.7
			c15.3,0,28.7,13.4,28.7,28.7v47.8H432v-9.6c0-15.3,13.4-28.7,28.7-28.7c15.3,0,28.7,13.4,28.7,28.7L489.4,457.8L489.4,457.8z"/>
	</g>
</g>
</svg>
