<?xml version="1.0" encoding="utf-8"?>
<!-- Generator: Adobe Illustrator 18.1.1, SVG Export Plug-In . SVG Version: 6.00 Build 0)  -->
<svg version="1.1" id="Layer_1" xmlns="http://www.w3.org/2000/svg" xmlns:xlink="http://www.w3.org/1999/xlink" x="0px" y="0px"
	 viewBox="-255 347 100 100" enable-background="new -255 347 100 100" xml:space="preserve">
<path id="LiveJournal" fill="#6D6D6D" d="M-171.2,440c-0.1,0-0.2,0-0.3-0.1l-30.4-12.7c-0.2-0.1-0.4-0.3-0.5-0.6
	c0-0.3,0-0.5,0.2-0.7c3.5-3.4,5.4-7.9,5.4-12.8c0-2.1-0.4-4.1-1-6c0-0.1,0-0.2,0-0.3l-22.2-29.8c-4.5,3.9-8.7,9.6-8.2,15.3
	c0,0.4-0.3,0.8-0.7,0.9c-0.4,0-0.8-0.3-0.9-0.7c-0.6-6.7,4.7-13.5,9.9-17.5c6.2-4.9,13-7,17.6-5.5c0.4,0.1,0.6,0.6,0.5,1
	c-0.1,0.4-0.6,0.6-1,0.5c-4.1-1.3-10.3,0.7-16,5.1l22.7,30.4c5.9,3.6,13.7,3.4,19.4-0.5c0.2-0.2,0.5-0.2,0.8-0.1
	c0.3,0.1,0.4,0.3,0.5,0.6l5.1,32.6c0,0.3-0.1,0.6-0.3,0.7C-170.8,440-171,440-171.2,440z M-200.2,426.2l28,11.7l-4.7-30
	c-5.7,3.4-13,3.6-18.8,0.6c0.4,1.5,0.5,3,0.5,4.6C-195.1,418.1-196.9,422.7-200.2,426.2z M-235.1,384.6c-0.4,0-0.8-0.3-0.8-0.7
	c-0.6-6.7,4.7-13.5,9.9-17.5c6.2-4.9,13-7,17.6-5.5c0.4,0.1,0.6,0.6,0.5,1c-0.1,0.4-0.6,0.6-1,0.5c-4.1-1.3-10.4,0.7-16.1,5.2
	c-4.8,3.8-9.8,10.1-9.3,16.2C-234.2,384.2-234.5,384.6-235.1,384.6C-235,384.6-235,384.6-235.1,384.6z M-181.6,434.9
	c1.1-4,4.4-7,8.5-7.8l1.9,12.2L-181.6,434.9L-181.6,434.9z M-217.1,355.6c-10.3,0-26.3,14.6-20.6,24.8l34.1,45.3l32.4,13.5
	l-5.5-35.4l-34.1-45.1C-212.2,356.5-214.4,355.6-217.1,355.6 M-217.1,352.4c3.8,0,7,1.6,8.9,4.5l34,45.1c0.3,0.4,0.5,0.9,0.6,1.4
	l5.5,35.4c0.2,1.1-0.3,2.3-1.2,3c-0.6,0.4-1.3,0.7-2,0.7c-0.4,0-0.8-0.1-1.2-0.2l-32.4-13.5c-0.5-0.2-1-0.6-1.3-1l-34.1-45.3
	c-0.1-0.1-0.2-0.2-0.2-0.3c-2.5-4.4-2.1-9.7,1-15.1C-234.7,358.9-224.7,352.4-217.1,352.4L-217.1,352.4z"/>
</svg>
