<?xml version="1.0" encoding="utf-8"?>
<!-- Generator: Adobe Illustrator 18.1.1, SVG Export Plug-In . SVG Version: 6.00 Build 0)  -->
<svg version="1.1" xmlns="http://www.w3.org/2000/svg" xmlns:xlink="http://www.w3.org/1999/xlink" x="0px" y="0px"
	 viewBox="-255 347 100 100" enable-background="new -255 347 100 100" xml:space="preserve">
<g id="Layer_9">
	<path fill="#9E4CFF" d="M-166.3,381.5c-5,0-9.2,3.6-10.1,8.3l-10.5-0.2c-0.7-11.3-10-20.2-21.5-20.2c-4.8,0-9.2,1.5-12.7,4.2
		l-1.8-2.1c1.5-1.8,2.3-4,2.3-6.5c0-5.7-4.6-10.3-10.3-10.3c-5.7,0-10.3,4.6-10.3,10.3c0,5.7,4.6,10.3,10.3,10.3
		c1.9,0,3.8-0.5,5.3-1.5l1.8,2.1c-3.8,3.9-6.2,9.2-6.2,15.1c0,9.9,6.6,18.2,15.7,20.7l-2.3,7.6c-1-0.3-2-0.5-3.1-0.5
		c-5.7,0-10.3,4.6-10.3,10.3c0,5.7,4.6,10.3,10.3,10.3c5.7,0,10.3-4.6,10.3-10.3c0-3.3-1.6-6.3-4-8.2l2.6-8.6
		c0.8,0.1,1.6,0.1,2.4,0.1c11.2,0,20.3-8.5,21.4-19.3l10.5,0.2c0.7,5,5,8.8,10.2,8.8c5.7,0,10.3-4.6,10.3-10.3
		C-156,386.1-160.6,381.5-166.3,381.5z M-219.7,437c-4.4,0-8-3.6-8-8c0-0.5,0.4-0.8,0.8-0.8s0.8,0.4,0.8,0.8c0,3.5,2.8,6.3,6.3,6.3
		c0.5,0,0.8,0.4,0.8,0.8C-218.9,436.6-219.2,437-219.7,437z M-231.8,357.7c0-0.5,0.4-0.8,0.8-0.8c4.4,0,8,3.6,8,8
		c0,0.5-0.4,0.8-0.8,0.8s-0.8-0.4-0.8-0.8c0-3.5-2.8-6.3-6.3-6.3C-231.4,358.5-231.8,358.1-231.8,357.7z M-221.7,390.8
		c0,1-0.8,1.8-1.8,1.8c-1,0-1.8-0.8-1.8-1.8c0-9.2,7.5-16.7,16.7-16.7c1,0,1.8,0.8,1.8,1.8s-0.8,1.8-1.8,1.8
		C-215.8,377.6-221.7,383.5-221.7,390.8z M-159.1,392.6c-0.5,0-0.8-0.4-0.8-0.8c0-3.5-2.8-6.3-6.3-6.3c-0.5,0-0.8-0.4-0.8-0.8
		c0-0.5,0.4-0.8,0.8-0.8c4.4,0,8,3.6,8,8C-158.3,392.2-158.7,392.6-159.1,392.6z"/>
</g>
<g id="Layer_9_copy" display="none">
	<path display="inline" fill="#4B946F" d="M-180.5,357.7c-4,3.1-5.1,8.4-2.9,12.8l-8.5,6.3c-7.4-8.5-20.3-9.9-29.4-2.9
		c-3.8,2.9-6.3,6.8-7.5,11.1l-2.7-0.6c0.1-2.3-0.6-4.6-2.1-6.6c-3.5-4.5-10-5.3-14.5-1.9c-4.5,3.5-5.3,10-1.9,14.5
		c3.5,4.5,10,5.3,14.5,1.9c1.5-1.2,2.6-2.7,3.3-4.4l2.7,0.6c-0.6,5.4,0.8,11.1,4.3,15.7c6,7.8,16.4,10.3,25.1,6.8l2.8,7.4
		c-1,0.4-1.9,0.9-2.7,1.5c-4.5,3.5-5.3,10-1.9,14.5s10,5.3,14.5,1.9c4.5-3.5,5.3-10,1.9-14.5c-2-2.6-5.1-4-8.2-4l-3.2-8.4
		c0.7-0.4,1.3-0.9,2-1.3c8.8-6.8,10.9-19.1,5.1-28.4l8.5-6.2c3.6,3.5,9.3,3.9,13.4,0.7c4.5-3.5,5.3-10,1.9-14.5
		S-176,354.2-180.5,357.7z M-188.8,434.3c-3.5,2.7-8.5,2.1-11.2-1.4c-0.3-0.4-0.2-0.9,0.2-1.2c0.4-0.3,0.9-0.2,1.2,0.2
		c2.1,2.8,6.1,3.3,8.9,1.1c0.4-0.3,0.9-0.2,1.2,0.2C-188.4,433.5-188.4,434-188.8,434.3z M-246.9,378.9c-0.3-0.4-0.2-0.9,0.2-1.2
		c3.5-2.7,8.5-2.1,11.2,1.4c0.3,0.4,0.2,0.9-0.2,1.2c-0.4,0.3-0.9,0.2-1.2-0.2c-2.1-2.8-6.1-3.3-8.9-1.1
		C-246,379.3-246.6,379.3-246.9,378.9z M-218.6,399c0.6,0.8,0.5,1.9-0.3,2.5c-0.8,0.6-1.9,0.5-2.5-0.3c-5.6-7.3-4.3-17.8,3-23.5
		c0.8-0.6,1.9-0.5,2.5,0.3c0.6,0.8,0.5,1.9-0.3,2.5C-222,384.9-223.1,393.2-218.6,399z M-168,362.1c-0.4,0.3-0.9,0.2-1.2-0.2
		c-2.1-2.8-6.1-3.3-8.9-1.1c-0.4,0.3-0.9,0.2-1.2-0.2c-0.3-0.4-0.2-0.9,0.2-1.2c3.5-2.7,8.5-2.1,11.2,1.4
		C-167.6,361.3-167.6,361.9-168,362.1z"/>
</g>
</svg>
