<?xml version="1.0" encoding="utf-8"?>
<!-- Generator: Adobe Illustrator 18.1.1, SVG Export Plug-In . SVG Version: 6.00 Build 0)  -->
<svg version="1.1" id="Capa_1" xmlns="http://www.w3.org/2000/svg" xmlns:xlink="http://www.w3.org/1999/xlink" x="0px" y="0px"
	 viewBox="0 0 612 792" enable-background="new 0 0 612 792" xml:space="preserve">
<g>
	<g>
		<g>
			<path fill="#6D6D6D" d="M306.6,90C137.9,90,0,227.9,0,396.6S137.9,702,306.6,702S612,565.4,612,396.6S475.4,90,306.6,90z
				 M306.6,646.6c-137.9,0-250-112.1-250-250s112.1-250,250-250s250,112.1,250,250S444.5,646.6,306.6,646.6z"/>
			<path fill="#6D6D6D" d="M304.1,204.7c-103.1,0-126.3,76-126.3,105.7c0,15.5,12.9,27.1,28.3,27.1s28.3-11.6,28.3-27.1
				c0-11.6,6.4-50.2,69.6-50.2c30.9,0,54.1,9,68.3,24.5c18,19.3,16.7,45.1,15.5,55.4c-3.9,29.6-19.3,45.1-49,45.1
				c-51.5,0-63.1,28.3-63.1,51.5v23.2c0,15.5,12.9,28.3,28.3,28.3c15.5,0,28.3-12.9,28.3-28.3v-18c1.3,0,3.9-1.3,6.4-1.3
				c45.1,0,96.6-24.5,104.4-94.1c3.9-37.4-5.2-73.4-28.3-99.2C398.1,227.9,363.3,204.7,304.1,204.7z"/>
			<path fill="#6D6D6D" d="M304.1,516.5c-19.3,0-34.8,15.5-34.8,34.8c0,19.3,15.5,34.8,34.8,34.8c19.3,0,34.8-15.5,34.8-34.8
				C338.9,531.9,323.4,516.5,304.1,516.5z"/>
		</g>
	</g>
</g>
</svg>
