<?xml version="1.0" encoding="utf-8"?>
<!-- Generator: Adobe Illustrator 18.1.1, SVG Export Plug-In . SVG Version: 6.00 Build 0)  -->
<svg version="1.1" id="Layer_10" xmlns="http://www.w3.org/2000/svg" xmlns:xlink="http://www.w3.org/1999/xlink" x="0px" y="0px"
	 viewBox="-255 347 100 100" enable-background="new -255 347 100 100" xml:space="preserve">
<path fill="#FFFC33" stroke="#232323" stroke-miterlimit="10" d="M-211.9,414.5l-13.5,20.6c0,0-10.3-2.3-16.3-12.6
	c-6-10.3-2.8-20.4-2.8-20.4l24.6-1.4c0.1,2.7,0.8,5.4,2.3,7.9C-216.1,411.1-214.1,413.1-211.9,414.5z M-165.6,401.7l-24.6-1.4
	c-0.1,2.7-0.8,5.4-2.3,7.9c-1.4,2.5-3.4,4.5-5.7,5.9l13.5,20.6c0,0,10.3-2.3,16.3-12.7C-162.4,411.8-165.6,401.7-165.6,401.7z
	 M-205.3,386.6c2.9,0,5.6,0.7,8,2l11.1-22c0,0-7.2-7.8-19.1-7.8s-19.1,7.8-19.1,7.8l11.1,22C-210.9,387.4-208.2,386.6-205.3,386.6z
	 M-205.3,392c-4.8,0-8.7,3.9-8.7,8.7c0,4.8,3.9,8.7,8.7,8.7c4.8,0,8.7-3.9,8.7-8.7C-196.6,395.9-200.5,392-205.3,392z"/>
</svg>
