<?xml version="1.0" encoding="utf-8"?>
<!-- Generator: Adobe Illustrator 18.1.1, SVG Export Plug-In . SVG Version: 6.00 Build 0)  -->
<svg version="1.1" id="Capa_1" xmlns="http://www.w3.org/2000/svg" xmlns:xlink="http://www.w3.org/1999/xlink" x="0px" y="0px"
	 viewBox="-60 152.6 489.4 489.4" enable-background="new -60 152.6 489.4 489.4" xml:space="preserve">
<g>
	<path fill="#D3D3D3" d="M315.8,245.5H106.9l17.5-42.8c3.7-9.1,1-19.6-6.7-25.7c-7.7-6.2-18.5-6.5-26.6-0.9l-141.5,98.3
		c-6.2,4.3-9.8,11.5-9.6,19c0.2,7.5,4.3,14.4,10.7,18.4l147.9,89.8c8.4,5.1,19.2,4.1,26.5-2.5c7.3-6.6,9.4-17.3,5.2-26.2l-19.4-41.1
		h204.9c15.1,0,27.4,12.5,27.4,27.7v149.9c0,15.1-12.3,27.2-27.4,27.2H89c-20.2,0-36.6,16.4-36.6,36.6v12.9
		c0,20.2,16.4,36.6,36.6,36.6h226.7c62.6,0,113.6-50.7,113.6-113.4V359.3C429.4,296.7,378.4,245.5,315.8,245.5z"/>
</g>
</svg>
