<?xml version="1.0" encoding="utf-8"?>
<!-- Generator: Adobe Illustrator 18.1.1, SVG Export Plug-In . SVG Version: 6.00 Build 0)  -->
<svg version="1.1" id="Capa_1" xmlns="http://www.w3.org/2000/svg" xmlns:xlink="http://www.w3.org/1999/xlink" x="0px" y="0px"
	 viewBox="0 0 612 792" enable-background="new 0 0 612 792" xml:space="preserve">
<g display="none">
	<g display="inline">
		<path fill="#232323" d="M44.1,563.7C20.8,563.7,0,583.3,0,606.5c0,23.3,20.8,44.1,44.1,44.1s42.8-20.8,42.8-44.1
			C86.9,583.3,67.3,563.7,44.1,563.7z"/>
		<path fill="#232323" d="M44.1,353.2C20.8,353.2,0,372.7,0,396s20.8,42.8,44.1,42.8s42.8-19.6,42.8-42.8
			C86.9,372.7,67.3,353.2,44.1,353.2z"/>
		<path fill="#232323" d="M200.7,224.6h370.9c22,0,40.4-17.1,40.4-39.2S593.6,145,571.6,145H200.7c-22,0-40.4,18.4-40.4,40.4
			S178.7,224.6,200.7,224.6z"/>
		<path fill="#232323" d="M44.1,141.4C20.8,141.4,0,162.2,0,185.5s20.8,42.8,44.1,42.8s42.8-19.6,42.8-42.8S67.3,141.4,44.1,141.4z"
			/>
		<path fill="#232323" d="M571.6,355.6H200.7c-22,0-40.4,18.4-40.4,40.4s18.4,40.4,40.4,40.4h370.9c22,0,40.4-18.4,40.4-40.4
			S593.6,355.6,571.6,355.6z"/>
		<path fill="#232323" d="M571.6,566.1H200.7c-22,0-40.4,18.4-40.4,40.4s18.4,40.4,40.4,40.4h370.9c22,0,40.4-18.4,40.4-40.4
			S593.6,566.1,571.6,566.1z"/>
	</g>
</g>
<path fill="#6D6D6D" d="M565.7,302h-97.4c-25.5,0-46.3-20.8-46.3-46.3v-64.4c0-25.5,20.8-46.3,46.3-46.3h97.4
	c25.5,0,46.3,20.8,46.3,46.3v64.4C612,281.2,591.2,302,565.7,302z"/>
<path fill="#6D6D6D" d="M354.7,302h-97.4c-25.5,0-46.3-20.8-46.3-46.3v-64.4c0-25.5,20.8-46.3,46.3-46.3h97.4
	c25.5,0,46.3,20.8,46.3,46.3v64.4C401,281.2,380.2,302,354.7,302z"/>
<path fill="#6D6D6D" d="M143.7,302H46.3C20.8,302,0,281.2,0,255.7v-64.4C0,165.8,20.8,145,46.3,145h97.4c25.5,0,46.3,20.8,46.3,46.3
	v64.4C190,281.2,169.1,302,143.7,302z"/>
<path fill="#6D6D6D" d="M565.7,474.5h-97.4c-25.5,0-46.3-20.8-46.3-46.3v-64.4c0-25.5,20.8-46.3,46.3-46.3h97.4
	c25.5,0,46.3,20.8,46.3,46.3v64.4C612,453.7,591.2,474.5,565.7,474.5z"/>
<path fill="#6D6D6D" d="M354.7,474.5h-97.4c-25.5,0-46.3-20.8-46.3-46.3v-64.4c0-25.5,20.8-46.3,46.3-46.3h97.4
	c25.5,0,46.3,20.8,46.3,46.3v64.4C401,453.7,380.2,474.5,354.7,474.5z"/>
<path fill="#6D6D6D" d="M143.7,474.5H46.3C20.8,474.5,0,453.7,0,428.2v-64.4c0-25.5,20.8-46.3,46.3-46.3h97.4
	c25.5,0,46.3,20.8,46.3,46.3v64.4C190,453.7,169.1,474.5,143.7,474.5z"/>
<path fill="#6D6D6D" d="M565.7,646.5h-97.4c-25.5,0-46.3-20.8-46.3-46.3v-64.4c0-25.5,20.8-46.3,46.3-46.3h97.4
	c25.5,0,46.3,20.8,46.3,46.3v64.4C612,625.7,591.2,646.5,565.7,646.5z"/>
<path fill="#6D6D6D" d="M354.7,646.5h-97.4c-25.5,0-46.3-20.8-46.3-46.3v-64.4c0-25.5,20.8-46.3,46.3-46.3h97.4
	c25.5,0,46.3,20.8,46.3,46.3v64.4C401,625.7,380.2,646.5,354.7,646.5z"/>
<path fill="#6D6D6D" d="M143.7,646.5H46.3C20.8,646.5,0,625.7,0,600.2v-64.4c0-25.5,20.8-46.3,46.3-46.3h97.4
	c25.5,0,46.3,20.8,46.3,46.3v64.4C190,625.7,169.1,646.5,143.7,646.5z"/>
</svg>
